# xmcd CD database file
#
# Track frame offsets:
#	150
#	15941
#	33593
#	48538
#	65917
#	85337
#	98529
#	114065
#	127859
#	146941
#	165148
#
# Disc length: 2462 seconds
#
# Revision: 1
# Processed by: cddbd v1.5.2PL0 Copyright (c) Steve Scherf et al.
# Submitted via: CDex 1.51
#
DISCID=83099c0b
DTITLE=Victoria Baillie - Start brand new
DYEAR=2009
DGENRE=Country
TTITLE0=Melt
TTITLE1=To you
TTITLE2=Make Me
TTITLE3=Stupid
TTITLE4=A good thing
TTITLE5=Too bad
TTITLE6=Walked in leaving
TTITLE7=I'm over it
TTITLE8=Start brand new
TTITLE9=Mr yesterday
TTITLE10=Find your way
EXTD=YEAR: 2009
EXTT0=
EXTT1=
EXTT2=
EXTT3=
EXTT4=
EXTT5=
EXTT6=
EXTT7=
EXTT8=
EXTT9=
EXTT10=
PLAYORDER=
